<svg width="60" height="60" viewBox="0 0 60 60" fill="none" xmlns="http://www.w3.org/2000/svg">
<path opacity="0.21" fill-rule="evenodd" clip-rule="evenodd" d="M0 30V37C0 49.7025 10.2975 60 23 60H30H37C49.7025 60 60 49.7025 60 37V30V23C60 10.2975 49.7025 0 37 0H30H23C10.2975 0 0 10.2975 0 23V30Z" fill="#8280FF"/>
<path opacity="0.587821" fill-rule="evenodd" clip-rule="evenodd" d="M20.6667 23.3333C20.6667 26.2789 23.0546 28.6667 26.0001 28.6667C28.9456 28.6667 31.3334 26.2789 31.3334 23.3333C31.3334 20.3878 28.9456 18 26.0001 18C23.0546 18 20.6667 20.3878 20.6667 23.3333ZM34.0001 28.6667C34.0001 30.8758 35.7909 32.6667 38.0001 32.6667C40.2092 32.6667 42.0001 30.8758 42.0001 28.6667C42.0001 26.4575 40.2092 24.6667 38.0001 24.6667C35.7909 24.6667 34.0001 26.4575 34.0001 28.6667Z" fill="#8280FF"/>
<path fill-rule="evenodd" clip-rule="evenodd" d="M25.9778 31.333C19.6826 31.333 14.5177 34.5684 14.0009 40.9319C13.9727 41.2786 14.6356 41.9997 14.97 41.9997H36.9956C37.9972 41.9997 38.0128 41.1936 37.9972 40.933C37.6065 34.3906 32.3616 31.333 25.9778 31.333ZM45.2746 41.9997L40.1333 41.9997C40.1333 38.9984 39.1417 36.2288 37.4683 34.0005C42.0103 34.0501 45.7189 36.3465 45.998 41.1997C46.0092 41.3951 45.998 41.9997 45.2746 41.9997Z" fill="#8280FF"/>
</svg>
