<svg width="24" height="24" viewBox="0 0 24 24" fill="none" xmlns="http://www.w3.org/2000/svg">
<path d="M17.1801 18C19.5801 18 20.1801 16.65 20.1801 15V9C20.1801 7.35 19.5801 6 17.1801 6C14.7801 6 14.1801 7.35 14.1801 9V15C14.1801 16.65 14.7801 18 17.1801 18Z" stroke="#9B9B9B" stroke-width="1.94669" stroke-linecap="round" stroke-linejoin="round"/>
<path d="M6.81982 18C4.41982 18 3.81982 16.65 3.81982 15V9C3.81982 7.35 4.41982 6 6.81982 6C9.21982 6 9.81982 7.35 9.81982 9V15C9.81982 16.65 9.21982 18 6.81982 18Z" stroke="#9B9B9B" stroke-width="1.94669" stroke-linecap="round" stroke-linejoin="round"/>
<path d="M9.82031 12H14.1803" stroke="#9B9B9B" stroke-width="1.94669" stroke-linecap="round" stroke-linejoin="round"/>
<path d="M22.4998 14.5V9.5" stroke="#9B9B9B" stroke-width="1.94669" stroke-linecap="round" stroke-linejoin="round"/>
<path d="M1.5 14.5V9.5" stroke="#9B9B9B" stroke-width="1.94669" stroke-linecap="round" stroke-linejoin="round"/>
</svg>
