<svg width="72" height="72" viewBox="0 0 72 72" fill="none" xmlns="http://www.w3.org/2000/svg">
<path fill-rule="evenodd" clip-rule="evenodd" d="M20.5425 13.9324C23.7999 13.9324 26.4408 11.2915 26.4408 8.03405C26.4408 4.7765 23.7999 2.13574 20.5425 2.13574C17.285 2.13574 14.6441 4.7765 14.6441 8.03405C14.6441 11.2915 17.285 13.9324 20.5425 13.9324ZM15.6611 15.5595C14.594 15.5595 13.7289 16.4246 13.7289 17.4917V51.7629C13.7289 52.8862 14.6395 53.7968 15.7628 53.7968H25.2204C26.3437 53.7968 27.2543 52.8862 27.2543 51.7629V38.6442C27.2543 37.5209 28.1649 36.6103 29.2882 36.6103H42.9153C44.0387 36.6103 44.9492 37.5209 44.9492 38.6442V51.7629C44.9492 52.8862 45.8598 53.7968 46.9831 53.7968H56.4408C57.5641 53.7968 58.4747 52.8862 58.4747 51.7629V17.4917C58.4747 16.4246 57.6095 15.5595 56.5424 15.5595C50.8303 15.5595 46.083 19.6906 45.1254 25.1283C44.9305 26.2345 44.0387 27.1527 42.9153 27.1527H29.2882C28.1649 27.1527 27.273 26.2345 27.0782 25.1283C26.1205 19.6906 21.3733 15.5595 15.6611 15.5595ZM57.6611 8.03405C57.6611 11.2915 55.0203 13.9324 51.7628 13.9324C48.5053 13.9324 45.8645 11.2915 45.8645 8.03405C45.8645 4.7765 48.5053 2.13574 51.7628 2.13574C55.0203 2.13574 57.6611 4.7765 57.6611 8.03405ZM11.1865 69.5391V65.2679V64.8001H15.0916V65.2679V68.034C15.0916 68.6577 15.234 69.0985 15.5187 69.3561C15.8035 69.6001 16.2984 69.7222 17.0035 69.7222C17.3289 69.7222 17.6475 69.7018 17.9594 69.6612C18.2713 69.6205 18.5017 69.5798 18.6509 69.5391V65.2679V60.5696V58.7391C18.6509 58.0748 18.5017 57.6205 18.2035 57.3764C17.9052 57.1324 17.4171 57.0103 16.7391 57.0103C16.4408 57.0103 16.1289 57.0375 15.8035 57.0917C15.4916 57.1324 15.2543 57.1662 15.0916 57.1934V60.5696V61.9934H11.1865V60.5696V58.6985C11.1865 58.0341 11.0373 57.5866 10.7391 57.3561C10.4408 57.1255 9.95262 57.0103 9.27465 57.0103C8.97635 57.0103 8.66449 57.0375 8.33906 57.0917C8.02719 57.1324 7.78991 57.1662 7.6272 57.1934V60.5696V65.2679V68.034C7.6272 68.6577 7.76957 69.0985 8.05432 69.3561C8.33906 69.6001 8.83398 69.7222 9.53906 69.7222C9.86449 69.7222 10.1831 69.7018 10.495 69.6612C10.8069 69.6205 11.0373 69.5798 11.1865 69.5391ZM20.6213 65.1662V65.634C20.6213 66.6375 20.8315 67.451 21.2518 68.0747C21.6857 68.6984 22.2822 69.1595 23.0416 69.4578C23.801 69.7425 24.6687 69.8849 25.645 69.8849C26.4179 69.8849 27.1297 69.8035 27.7806 69.6408C28.445 69.4916 29.0145 69.2679 29.4891 68.9696C29.7738 68.7934 29.984 68.5832 30.1196 68.3391C30.2688 68.0815 30.3433 67.7832 30.3433 67.4442V65.1662V64.2917V61.1595C30.3433 60.5221 30.1941 60.095 29.8958 59.8781C29.5976 59.6476 29.1094 59.5323 28.4314 59.5323C28.106 59.5323 27.8009 59.5527 27.5162 59.5934C27.245 59.634 27.0349 59.6747 26.8857 59.7154V64.2917V65.1662V66.9357C26.7908 66.9899 26.6416 67.0442 26.4382 67.0984C26.2348 67.1526 25.9772 67.1798 25.6653 67.1798C25.1637 67.1798 24.7704 67.0578 24.4857 66.8137C24.2145 66.5696 24.0789 66.1764 24.0789 65.634V65.1662V64.2917V61.1595C24.0789 60.5221 23.9297 60.095 23.6314 59.8781C23.3332 59.6476 22.845 59.5323 22.167 59.5323C21.8416 59.5323 21.5365 59.5527 21.2518 59.5934C20.9806 59.634 20.7705 59.6747 20.6213 59.7154V64.2917V65.1662ZM41.7744 64.19V63.1934C41.7744 61.9866 41.3609 61.051 40.5337 60.3866C39.7067 59.7086 38.527 59.3696 36.9948 59.3696C36.1541 59.3696 35.3813 59.4713 34.6761 59.6747C33.9711 59.8646 33.388 60.1222 32.927 60.4476C32.6558 60.6375 32.4388 60.8476 32.2761 61.0781C32.127 61.3087 32.0524 61.6069 32.0524 61.973V64.19V65.0646V68.0951C32.0524 68.7188 32.2016 69.1459 32.4998 69.3764C32.8117 69.607 33.2999 69.7222 33.9642 69.7222C34.2897 69.7222 34.588 69.7018 34.8592 69.6612C35.1439 69.6205 35.3609 69.5798 35.51 69.5391V65.0646V64.19V62.4408C35.727 62.3323 35.9508 62.2442 36.1812 62.1764C36.4253 62.1086 36.683 62.0747 36.9541 62.0747C37.3609 62.0747 37.6863 62.1764 37.9303 62.3798C38.188 62.5697 38.3168 62.8748 38.3168 63.2951V64.19V65.0646V68.0951C38.3168 68.7188 38.466 69.1459 38.7642 69.3764C39.0761 69.607 39.5643 69.7222 40.2287 69.7222C40.5541 69.7222 40.8525 69.7018 41.1236 69.6612C41.4083 69.6205 41.6253 69.5798 41.7744 69.5391V65.0646V64.19ZM49.8085 63.5798V64.19V65.39V68.0951C49.8085 68.7188 49.9576 69.1459 50.256 69.3764C50.5678 69.607 51.0559 69.7222 51.7204 69.7222C52.0458 69.7222 52.3441 69.7018 52.6153 69.6612C52.9 69.6205 53.117 69.5798 53.2661 69.5391V65.39V64.19V63.3764C53.2661 62.0476 52.8864 61.051 52.1272 60.3866C51.3813 59.7086 50.344 59.3696 49.0153 59.3696C48.5 59.3696 48.0254 59.4375 47.5916 59.573C47.3806 59.6324 47.1839 59.6966 47.0017 59.7655V57.7425C47.0017 57.1052 46.8526 56.6781 46.5543 56.4612C46.2559 56.2306 45.7678 56.1154 45.0899 56.1154C44.7644 56.1154 44.4594 56.1357 44.1746 56.1764C43.9034 56.2171 43.6932 56.2578 43.5441 56.2984V64.19V66.0001V68.0951C43.5441 68.7188 43.6932 69.1459 43.9916 69.3764C44.3034 69.607 44.7915 69.7222 45.456 69.7222C45.7814 69.7222 46.0797 69.7018 46.3509 69.6612C46.6356 69.6205 46.8526 69.5798 47.0017 69.5391V66.0001V64.19V62.4446C47.0926 62.3946 47.1874 62.3458 47.2865 62.2985C47.5983 62.1493 47.9577 62.0747 48.3645 62.0747C48.7712 62.0747 49.1102 62.1899 49.3814 62.4205C49.6661 62.6374 49.8085 63.0238 49.8085 63.5798ZM54.9941 65.1662V65.634C54.9941 66.6375 55.2043 67.451 55.6246 68.0747C56.0586 68.6984 56.6551 69.1595 57.4145 69.4578C58.1738 69.7425 59.0416 69.8849 60.0179 69.8849C60.7908 69.8849 61.5026 69.8035 62.1535 69.6408C62.8178 69.4916 63.3873 69.2679 63.8619 68.9696C64.1467 68.7934 64.3569 68.5832 64.4924 68.3391C64.6416 68.0815 64.7162 67.7832 64.7162 67.4442V65.1662V64.2917V61.1595C64.7162 60.5221 64.567 60.095 64.2687 59.8781C63.9704 59.6476 63.4823 59.5323 62.8043 59.5323C62.4789 59.5323 62.1738 59.5527 61.8891 59.5934C61.6178 59.634 61.4077 59.6747 61.2585 59.7154V64.2917V65.1662V66.9357C61.1637 66.9899 61.0145 67.0442 60.8111 67.0984C60.6077 67.1526 60.3501 67.1798 60.0382 67.1798C59.5365 67.1798 59.1433 67.0578 58.8586 66.8137C58.5873 66.5696 58.4518 66.1764 58.4518 65.634V65.1662V64.2917V61.1595C58.4518 60.5221 58.3026 60.095 58.0043 59.8781C57.706 59.6476 57.2179 59.5323 56.5399 59.5323C56.2145 59.5323 55.9094 59.5527 55.6246 59.5934C55.3534 59.634 55.1433 59.6747 54.9941 59.7154V64.2917V65.1662Z" fill="white"/>
</svg>
