<svg width="24" height="24" viewBox="0 0 24 24" fill="none" xmlns="http://www.w3.org/2000/svg">
<path d="M15.58 11.9999C15.58 13.9799 13.98 15.5799 12 15.5799C10.02 15.5799 8.41998 13.9799 8.41998 11.9999C8.41998 10.0199 10.02 8.41992 12 8.41992C13.98 8.41992 15.58 10.0199 15.58 11.9999Z" stroke="#00AB9A" stroke-width="1.5" stroke-linecap="round" stroke-linejoin="round"/>
<path d="M12 20.2697C15.53 20.2697 18.82 18.1897 21.11 14.5897C22.01 13.1797 22.01 10.8097 21.11 9.39973C18.82 5.79973 15.53 3.71973 12 3.71973C8.47003 3.71973 5.18003 5.79973 2.89003 9.39973C1.99003 10.8097 1.99003 13.1797 2.89003 14.5897C5.18003 18.1897 8.47003 20.2697 12 20.2697Z" stroke="#00AB9A" stroke-width="1.5" stroke-linecap="round" stroke-linejoin="round"/>
</svg>
