<svg width="20" height="20" viewBox="0 0 20 20" fill="none" xmlns="http://www.w3.org/2000/svg">
<path fill-rule="evenodd" clip-rule="evenodd" d="M17.4019 4.4419C18.2085 4.65916 18.8446 5.29511 19.0618 6.10191C19.4652 7.57556 19.4497 10.6473 19.4497 10.6473C19.4497 10.6473 19.4497 13.7033 19.0619 15.1771C18.8446 15.9838 18.2087 16.6199 17.4019 16.837C15.9281 17.225 10.0331 17.225 10.0331 17.225C10.0331 17.225 4.15344 17.225 2.66427 16.8216C1.85747 16.6044 1.22152 15.9683 1.00426 15.1616C0.616455 13.7033 0.616455 10.6318 0.616455 10.6318C0.616455 10.6318 0.616455 7.57556 1.00426 6.10191C1.22137 5.29525 1.87299 4.64364 2.66413 4.42653C4.13792 4.03857 10.0329 4.03857 10.0329 4.03857C10.0329 4.03857 15.9281 4.03857 17.4019 4.4419ZM13.0583 10.6318L8.15611 13.4553V7.80835L13.0583 10.6318Z" fill="#1952B3"/>
</svg>
